<svg xmlns="http://www.w3.org/2000/svg" xmlns:xlink="http://www.w3.org/1999/xlink" version="1.1" x="0px" y="0px" viewBox="0 0 100 100" enable-background="new 0 0 100 100" xml:space="preserve" fill="#F44336" >
<path 
	d="M49.672,27.75c0.441-1.005,1.312-1.679,2.264-1.877c0.011-0.011,0.011-0.011,0.021-0.011  
	c0.099-0.044,0.221-0.077,0.343-0.077h26.6c0.993,0.021,1.998,0.508,2.672,1.402l6.779,8.911l6.815-0.021V5H40.142v54.539h-0.716  
	c-4.022,0.018-7.322,3.114-7.355,6.914c-0.008,1.767,0.697,3.451,1.982,4.74c1.38,1.387,3.327,2.183,5.34,2.183h0.75v12.528  
	l-5.363,9.17h40.724l3.2-5.547c1.403-2.439,4.396-3.389,6.648-2.109c2.241,1.281,2.937,4.328,1.523,6.77l-0.517,0.887h3.445  
	l5.362-9.17v-43.92l-8.493,0.021c-0.913,0-1.616-0.409-2.578-1.669c-2.119-2.774-5.648-7.011-5.648-7.011l-6.989,14.984  
	l15.956,27.705c1.413,2.439,0.718,5.486-1.523,6.768c-2.253,1.281-5.245,0.332-6.648-2.109L63.396,53.158l-2.694,13.858  
	c-0.541,2.672-2.948,4.481-5.399,4.095c-0.1,0.035-0.21,0.046-0.331,0.046l-15.581,0.011c-2.826,0-5.123-2.12-5.112-4.704  
	c0.022-2.594,2.33-4.703,5.156-4.716h12.709l2.628-13.504c0,0,0.869-4.497,1.896-6.699c1.026-2.202,4.453-9.555,4.453-9.555h-6.944  
	l-3.501,7.255c-0.717,1.612-2.517,2.385-3.997,1.723c-1.48-0.674-2.098-2.54-1.38-4.152L49.672,27.75z M78.695,8.906  
	c4.064,0,7.36,3.296,7.36,7.361s-3.296,7.361-7.36,7.361c-4.066,0-7.362-3.296-7.362-7.361S74.629,8.906,78.695,8.906z"
/>

<path 
fill-rule="evenodd" clip-rule="evenodd" 
d="M23.065,15.625c0,0-2.15,2.256-8.111,4.027c-1.834,0.545-5.543,2.855-6.205,8.857  
c1.625-1.62,3.17-2.352,6.172-3.161C23.941,22.917,23.383,16.468,23.065,15.625"
/>

<path 
d="M25,52.5c-6.754,3.377-5,8.125-12.5,11.25c0.625-8.125,9.956-10.58,14.375-15c5-5,8.125-12.456,8.125-16.875  
c0-8.75-1.875-10-1.875-10s0,3.75-1.875,5.625c-2.5,2.5-5.625,3.75-10,5.625c-3.254,1.395-7.5,4.375-7.5,4.375  
s0.625-1.875,3.125-4.375s5.625-3.75,5.625-3.75s-8.125-3.125-17.5,5c0,1.912,0,8.763,0,16.875c0,0,0.92-3.134,2.311-4.631  
c2.381-2.563,4.13-3.143,7.16-4.005c5.366-1.527,5.678-4.26,5.678-4.26s1.851,5.178-3.336,8.928  
c-3.088,2.232-4.545,1.162-8.764,4.722C4.794,54.75,5,57.938,5,57.938C5,62.366,4.998,68.352,4.998,72.5c0,0,6.127-0.625,9.252-3.75  
c1.651-1.651,4-4.5,4-4.5s-0.125,5.125-1.625,8C12.968,79.259,5,79.375,5,79.375c0,2.53,0,4.504,0,5.625  
c10,0,15.987-3.521,20.625-11.25c3.75-6.25,0.768-11.151,3.75-15.625C31.875,54.375,35,52.5,35,52.5S30,50,25,52.5z"
/>
</svg>